<svg width="97" height="97" viewBox="0 0 97 97" fill="none" xmlns="http://www.w3.org/2000/svg">
<g id="send-01">
<path id="Icon" d="M42.7872 54.2136L84.7871 12.2136M43.2975 55.5258L53.8099 82.5578C54.736 84.9392 55.1991 86.1299 55.8663 86.4776C56.4447 86.7789 57.1337 86.7793 57.7124 86.4786C58.38 86.1318 58.8445 84.9417 59.7734 82.5614L86.1347 15.0104C86.9733 12.8617 87.3925 11.7873 87.1632 11.1008C86.964 10.5046 86.4961 10.0367 85.8999 9.83754C85.2134 9.6082 84.1391 10.0275 81.9904 10.866L14.4394 37.2273C12.0591 38.1562 10.8689 38.6207 10.5221 39.2883C10.2214 39.8671 10.2218 40.5561 10.5232 41.1345C10.8708 41.8017 12.0615 42.2647 14.4429 43.1908L41.4749 53.7033C41.9583 53.8912 42.2 53.9852 42.4035 54.1304C42.5839 54.2591 42.7416 54.4168 42.8703 54.5972C43.0155 54.8007 43.1095 55.0424 43.2975 55.5258Z" stroke="#08354F" stroke-width="8" stroke-linecap="round" stroke-linejoin="round"/>
</g>
</svg>
